<?xml version="1.0" encoding="utf-8"?>
<!-- Generator: Adobe Illustrator 15.1.0, SVG Export Plug-In . SVG Version: 6.00 Build 0)  -->
<!DOCTYPE svg PUBLIC "-//W3C//DTD SVG 1.1//EN" "http://www.w3.org/Graphics/SVG/1.1/DTD/svg11.dtd">
<svg version="1.1" xmlns="http://www.w3.org/2000/svg" xmlns:xlink="http://www.w3.org/1999/xlink" x="0px" y="0px" width="594px"
	 height="225.5px" viewBox="-45 10 594 225.5" enable-background="new -45 10 594 225.5" xml:space="preserve">
<g id="Ebene_1">
	<g transform="matrix( 1, 0, 0, 1, 270,119.55) ">
		<g transform="matrix( 1, 0, 0, 1, 0,0) ">
			<g>
				<g id="Symbol_1_0_Layer0_0_FILL">
					<path fill="#009FFF" d="M0.05-71.55L0-71.5c-9.033,21.866-13.55,45.866-13.55,72c0,26.1,4.517,50.083,13.55,71.95l0.05,0.05
						v-0.05C9.117,50.583,13.65,26.6,13.65,0.5c0-26.134-4.533-50.134-13.601-72V-71.55z"/>
				</g>
			</g>
			<g>
				<path id="Symbol_1_0_Layer0_0_1_STROKES" fill="none" stroke="#009FFF" stroke-linecap="round" stroke-linejoin="round" d="
					M0.05-71.55v0.05C9.117-49.634,13.65-25.634,13.65,0.5c0,26.1-4.533,50.083-13.601,71.95v0.05L0,72.45
					C-9.033,50.583-13.55,26.6-13.55,0.5c0-26.134,4.517-50.134,13.55-72L0.05-71.55z"/>
			</g>
		</g>
	</g>
	<defs>
		<filter id="Adobe_OpacityMaskFilter" filterUnits="userSpaceOnUse" x="-31.75" y="-6.25" width="587.95" height="265">
			<feColorMatrix  type="matrix" values="1 0 0 0 0  0 1 0 0 0  0 0 1 0 0  0 0 0 1 0"/>
		</filter>
	</defs>
	<mask maskUnits="userSpaceOnUse" x="-31.75" y="-6.25" width="587.95" height="265" id="Mask_Mask_4">
		<g transform="matrix( 1, 0, 0, 1, -36,-9) " filter="url(#Adobe_OpacityMaskFilter)">
			<g transform="matrix( 1, 0, 0, 1, 0,0) ">
				<g>
					<g id="Mask_Mask_Symbol_17_0_Layer0_0_FILL">
						<path fill="#FFFFFF" d="M598.95,313.949V0H0v313.949H598.95z"/>
					</g>
				</g>
			</g>
		</g>
	</mask>
	<g display="none" mask="url(#Mask_Mask_4)">
		<g transform="matrix( 1, 0, 0, 1, 0,0) " display="inline">
			<g>
				
					<path id="Layer10_0_1_STROKES" fill="none" stroke="#FFFF00" stroke-width="1.5" stroke-linecap="round" stroke-linejoin="round" d="
					M349.9,120h-0.351h-0.3 M349.9,120h0.024 M350.8,120h203.15 M350.05,120h0.551 M-29,120h378.25l0.05,0.05h0.2l0.05-0.05
					l-0.149,0.1l0.149,0.101l0.351-0.2 M349.55,120l0.101-0.05l-0.75-0.15l0.35,0.2 M349.55,120l0.15-0.05h-0.05l0.3-0.25
					l-3.55-1.301l2.5,1.4L270.15,106H-29.5 M350.15,119.75h0.05l-0.15-0.15l-0.1,0.101L350.15,119.75l0.1,0.05h0.05l-0.1-0.05
					l0.5-0.2L546,9.5 M350.25,119.8l0.15,0.05l-0.101-0.05l0.4-0.25L535,50 M349.925,120h0.025l-0.15-0.05l-0.25,0.05
					 M350.15,119.75l-0.45,0.2h0.1l0.25-0.051l0.2-0.1 M349.5,120.05l-0.149,0.05h0.05l-0.8,0.65l0.949-0.55l5.301,2.949l-4.101-3
					l-0.7-0.149h-0.1l0.1-0.101l0.351-0.05l194.1-36.6 M350.6,120l0.149,0.149l0.7,0.101L350.6,120l-0.2-0.15L350.8,120
					 M349.3,120.05l0.051,0.05L270,150H-30 M555.45,156l-204-35.75L550.25,193 M535,225L354.85,123.15L535.95,258 M-30.5,90.5
					h300.65L346.4,118.4L270.5,75.5H-31 M-30,135h300l79.3-14.95 M-30,180h300l78.601-59.25L270,165H-30 M-30,60h300l80.05,59.6
					L515.95-5.5"/>
			</g>
		</g>
	</g>
	
		<line fill="none" stroke="#FF00FF" stroke-width="1.9358" stroke-linecap="round" stroke-linejoin="round" x1="270.051" y1="203.176" x2="270.051" y2="42.176"/>
	<g transform="matrix( 1, 0, 0, 1, 335.2,248) ">
		<g enable-background="new    ">
			<path d="M7.037-100.5v-12.885h8.692v1.521H8.742v3.99h6.047v1.521H8.742v5.854H7.037z"/>
			<path d="M21.771-96.5h-1.23v-7.841c-0.296,0.282-0.685,0.565-1.165,0.848c-0.481,0.282-0.913,0.494-1.296,0.636v-1.189
				c0.688-0.323,1.29-0.716,1.805-1.176s0.88-0.907,1.094-1.34h0.793V-96.5z"/>
		</g>
		
			<line fill="none" stroke="#000000" stroke-width="1.5" stroke-miterlimit="10" x1="14.951" y1="-121.625" x2="14.951" y2="-134.166"/>
		
			<line fill="none" stroke="#000000" stroke-width="1.5" stroke-miterlimit="10" x1="-145.249" y1="-121.802" x2="-145.249" y2="-134.344"/>
		<g enable-background="new    ">
			<path d="M-149.629-100.5v-12.885h8.692v1.521h-6.987v3.99h6.047v1.521h-6.047v5.854H-149.629z"/>
			<path d="M-133.063-97.682v1.183h-6.624c-0.009-0.296,0.039-0.581,0.144-0.854c0.168-0.451,0.438-0.896,0.81-1.333
				s0.908-0.943,1.61-1.518c1.089-0.894,1.825-1.601,2.208-2.123c0.383-0.521,0.574-1.015,0.574-1.479
				c0-0.487-0.174-0.899-0.523-1.233c-0.349-0.336-0.803-0.503-1.364-0.503c-0.592,0-1.066,0.178-1.422,0.533
				s-0.536,0.848-0.54,1.477l-1.265-0.13c0.086-0.943,0.413-1.662,0.978-2.156c0.565-0.495,1.324-0.742,2.276-0.742
				c0.961,0,1.723,0.267,2.283,0.8s0.841,1.194,0.841,1.982c0,0.401-0.082,0.795-0.246,1.183s-0.437,0.795-0.817,1.224
				s-1.013,1.017-1.897,1.764c-0.738,0.62-1.212,1.04-1.422,1.261c-0.209,0.222-0.383,0.443-0.52,0.667H-133.063z"/>
		</g>
	</g>
	
		<line fill="none" stroke="#000000" stroke-width="1.5" stroke-linecap="round" stroke-linejoin="round" stroke-dasharray="10.9317" x1="-76" y1="120" x2="549" y2="120"/>
	<g>
		<g>
			<line fill="none" stroke="#007D00" stroke-width="2" stroke-miterlimit="10" x1="-8" y1="60.978" x2="-8" y2="119.927"/>
			<g>
				<rect x="-14.5" y="59.978" fill="#007D00" width="13" height="2"/>
			</g>
			<g>
				<rect x="-14.5" y="118.927" fill="#007D00" width="13" height="2"/>
			</g>
		</g>
	</g>
	<g>
		<path fill="#007D00" d="M-26.628,88.909l0.308-1.459h5.643l-1.099,5.247c-0.709,0.445-1.518,0.809-2.426,1.09
			s-1.802,0.422-2.681,0.422c-1.875,0-3.275-0.565-4.201-1.696c-0.779-0.955-1.169-2.183-1.169-3.683
			c0-1.547,0.341-2.955,1.024-4.223s1.544-2.206,2.584-2.813s2.196-0.91,3.467-0.91c0.914,0,1.734,0.166,2.461,0.497
			s1.283,0.773,1.67,1.327s0.665,1.276,0.835,2.167l-1.688,0.185c-0.182-0.885-0.558-1.563-1.129-2.035s-1.305-0.708-2.202-0.708
			c-0.932,0-1.802,0.253-2.61,0.76s-1.455,1.271-1.938,2.294s-0.725,2.184-0.725,3.485c0,1.295,0.319,2.273,0.958,2.936
			s1.521,0.993,2.646,0.993c1.119,0,2.323-0.369,3.612-1.107l0.58-2.769H-26.628z"/>
	</g>
	<g>
		<g>
			<line fill="none" stroke="#008000" stroke-width="2" stroke-miterlimit="10" x1="404.5" y1="146.515" x2="404.5" y2="120"/>
			<g>
				<rect x="398" y="145.515" fill="#008000" width="13" height="2"/>
			</g>
			<g>
				<rect x="398" y="119" fill="#008000" width="13" height="2"/>
			</g>
		</g>
	</g>
	<g>
		<path fill="#007D00" d="M415.279,138.427l2.698-12.885h3.99c0.727,0,1.266,0.029,1.617,0.088c0.574,0.1,1.06,0.274,1.454,0.523
			c0.396,0.249,0.702,0.589,0.919,1.02s0.325,0.907,0.325,1.428c0,0.709-0.195,1.333-0.584,1.872
			c-0.391,0.539-0.986,0.949-1.789,1.23c0.697,0.229,1.219,0.573,1.564,1.033s0.519,0.998,0.519,1.613
			c0,0.709-0.204,1.389-0.61,2.039c-0.408,0.65-0.947,1.153-1.617,1.507c-0.672,0.354-1.42,0.532-2.246,0.532H415.279z
			 M417.309,136.968h2.936c0.779,0,1.304-0.026,1.573-0.079c0.545-0.094,0.987-0.253,1.327-0.479s0.606-0.523,0.8-0.892
			s0.29-0.756,0.29-1.16c0-0.604-0.188-1.062-0.567-1.375c-0.377-0.313-1.097-0.47-2.157-0.47h-3.27L417.309,136.968z
			 M418.549,131.044h2.61c1.248,0,2.146-0.199,2.694-0.598c0.547-0.398,0.821-0.979,0.821-1.74c0-0.363-0.085-0.677-0.255-0.94
			s-0.397-0.456-0.682-0.576s-0.818-0.18-1.604-0.18h-2.742L418.549,131.044z"/>
	</g>
	<g>
		<path fill="#FFA500" d="M189.979,128.549c0,1.266-2.89,4.124-13.566,4.124h-17.581c-5.7,0-6.502,0.919-8.108,2.328h-1.766
			c-1.605-1.409-2.409-2.328-8.108-2.328h-17.581c-11.078,0-13.567-3.001-13.567-4.369h1.846c1.927,1.572,1.766,2.328,9.393,2.328
			h20.872c3.853,0,7.225,1.184,8.027,2.042c0.642-0.878,4.255-2.042,8.028-2.042h20.872c7.546,0,7.466-0.755,9.393-2.328h1.846
			V128.549z"/>
	</g>
	<g>
		<path fill="#FFA500" d="M149.701,141.13c0.24-0.852,0.516-1.619,0.947-2.171c0.408-0.504,0.948-0.815,1.763-0.815
			c0.72,0,1.188,0.371,1.188,0.959c0,0.372-0.24,0.647-0.612,0.647c-0.336,0-0.587-0.264-0.587-0.6c0-0.275,0.192-0.336,0.192-0.503
			c0-0.097-0.096-0.156-0.216-0.156c-0.408,0-0.816,0.672-1.104,1.847l-0.192,0.792h1.091l-0.108,0.504h-1.067
			c-0.672,3.178-0.815,3.754-1.14,4.725c-0.372,1.104-0.647,1.644-1.079,2.063c-0.384,0.371-0.84,0.552-1.367,0.552
			c-0.672,0-1.188-0.372-1.188-0.948c0-0.371,0.288-0.659,0.612-0.659c0.312,0,0.6,0.24,0.6,0.588c0,0.3-0.192,0.336-0.192,0.504
			c0,0.096,0.096,0.144,0.216,0.144c0.479,0,0.708-0.492,1.08-2.267c0.072-0.348,0.456-2.063,1.055-4.701h-0.888l0.108-0.504
			H149.701z"/>
	</g>
	<g>
		<path fill="#FFA500" d="M270.227,128.549c0,1.266-2.89,4.124-13.566,4.124H239.08c-5.7,0-6.502,0.919-8.108,2.328h-1.766
			c-1.605-1.409-2.409-2.328-8.108-2.328h-17.581c-11.078,0-13.567-3.001-13.567-4.369h1.846c1.927,1.572,1.766,2.328,9.393,2.328
			h20.872c3.853,0,7.225,1.184,8.027,2.042c0.642-0.878,4.255-2.042,8.028-2.042h20.872c7.546,0,7.466-0.755,9.392-2.328h1.847
			V128.549z"/>
	</g>
	<g>
		<path fill="#FFA500" d="M228.951,141.13c0.24-0.852,0.516-1.619,0.947-2.171c0.408-0.504,0.948-0.815,1.763-0.815
			c0.72,0,1.188,0.371,1.188,0.959c0,0.372-0.24,0.647-0.612,0.647c-0.336,0-0.587-0.264-0.587-0.6c0-0.275,0.192-0.336,0.192-0.503
			c0-0.097-0.096-0.156-0.216-0.156c-0.408,0-0.816,0.672-1.104,1.847l-0.192,0.792h1.091l-0.108,0.504h-1.067
			c-0.672,3.178-0.815,3.754-1.14,4.725c-0.372,1.104-0.647,1.644-1.079,2.063c-0.384,0.371-0.84,0.552-1.367,0.552
			c-0.672,0-1.188-0.372-1.188-0.948c0-0.371,0.288-0.659,0.612-0.659c0.312,0,0.6,0.24,0.6,0.588c0,0.3-0.192,0.336-0.192,0.504
			c0,0.096,0.096,0.144,0.216,0.144c0.479,0,0.708-0.492,1.08-2.267c0.072-0.348,0.456-2.063,1.055-4.701h-0.888l0.108-0.504
			H228.951z"/>
	</g>
	<g>
		<path fill="#FFA500" d="M348.48,112.843c-1.927-1.572-1.846-2.328-9.393-2.328h-20.871c-3.773,0-7.387-1.164-8.028-2.042
			c-0.803,0.857-4.175,2.042-8.027,2.042h-20.872c-7.627,0-7.466,0.755-9.393,2.328h-1.846c0-1.368,2.488-4.369,13.566-4.369h17.58
			c5.699,0,6.503-0.919,8.108-2.328h1.767c1.605,1.409,2.408,2.328,8.107,2.328h17.58c10.678,0,13.566,2.858,13.566,4.124v0.245
			H348.48z"/>
	</g>
	<g>
		<path fill="#FFA500" d="M308.618,96.13c0.239-0.852,0.516-1.619,0.947-2.171c0.408-0.504,0.948-0.815,1.763-0.815
			c0.721,0,1.188,0.371,1.188,0.959c0,0.372-0.239,0.647-0.611,0.647c-0.336,0-0.588-0.264-0.588-0.6
			c0-0.275,0.192-0.336,0.192-0.503c0-0.097-0.097-0.156-0.216-0.156c-0.408,0-0.816,0.672-1.104,1.847l-0.191,0.792h1.091
			l-0.108,0.504h-1.066c-0.672,3.178-0.816,3.754-1.141,4.725c-0.371,1.104-0.646,1.644-1.078,2.063
			c-0.385,0.371-0.84,0.552-1.367,0.552c-0.672,0-1.188-0.372-1.188-0.948c0-0.371,0.287-0.659,0.611-0.659
			c0.312,0,0.6,0.24,0.6,0.588c0,0.3-0.191,0.336-0.191,0.504c0,0.096,0.096,0.144,0.215,0.144c0.48,0,0.708-0.492,1.08-2.267
			c0.072-0.348,0.455-2.063,1.055-4.701h-0.887l0.107-0.504H308.618z"/>
	</g>
	<g>
		<path fill="#FFA500" d="M427.741,112.843c-1.927-1.572-1.847-2.328-9.393-2.328h-20.872c-3.772,0-7.385-1.164-8.027-2.042
			c-0.803,0.857-4.174,2.042-8.027,2.042H360.55c-7.626,0-7.466,0.755-9.393,2.328h-1.847c0-1.368,2.489-4.369,13.567-4.369h17.581
			c5.699,0,6.502-0.919,8.107-2.328h1.766c1.605,1.409,2.408,2.328,8.108,2.328h17.581c10.676,0,13.566,2.858,13.566,4.124v0.245
			H427.741z"/>
	</g>
	<g>
		<path fill="#FFA500" d="M389.879,95.13c0.24-0.852,0.516-1.619,0.947-2.171c0.408-0.504,0.947-0.815,1.764-0.815
			c0.719,0,1.188,0.371,1.188,0.959c0,0.372-0.24,0.647-0.612,0.647c-0.336,0-0.587-0.264-0.587-0.6
			c0-0.275,0.191-0.336,0.191-0.503c0-0.097-0.096-0.156-0.216-0.156c-0.408,0-0.815,0.672-1.104,1.847l-0.192,0.792h1.092
			l-0.107,0.504h-1.068c-0.672,3.178-0.814,3.754-1.139,4.725c-0.372,1.104-0.648,1.644-1.08,2.063
			c-0.383,0.371-0.84,0.552-1.367,0.552c-0.672,0-1.188-0.372-1.188-0.948c0-0.371,0.288-0.659,0.612-0.659
			c0.312,0,0.6,0.24,0.6,0.588c0,0.3-0.192,0.336-0.192,0.504c0,0.096,0.096,0.144,0.217,0.144c0.479,0,0.707-0.492,1.079-2.267
			c0.071-0.348,0.456-2.063,1.056-4.701h-0.889l0.108-0.504H389.879z"/>
	</g>
	<line fill="none" stroke="#FF0000" stroke-miterlimit="10" x1="13.744" y1="60.978" x2="492.834" y2="171.5"/>
</g>
<g id="Ebene_2">
	<path fill-rule="evenodd" clip-rule="evenodd" fill="#009632" d="M11.541,60.978c0.734,0,1.469,0,2.203,0
		c0.06,0.43,0.67,0.31,1.102,0.367c-0.067,0.313,0.144,0.347,0.367,0.368c-0.067,0.312,0.144,0.346,0.367,0.367
		c-0.067,0.313,0.144,0.346,0.367,0.367c0,0.123,0,0.245,0,0.368c0,0.367,0,0.734,0,1.101c0,0.245,0,0.49,0,0.735
		c-0.06,0.427,0.081,0.653,0.367,0.734c0,0.122,0,0.245,0,0.367c-0.059,0.427,0.081,0.653,0.368,0.734
		c-0.068,0.313,0.143,0.347,0.367,0.367c0,0.123,0,0.245,0,0.367c-0.06,0.427,0.081,0.654,0.367,0.734c0,0.245,0,0.49,0,0.734
		c-0.059,0.427,0.082,0.654,0.368,0.735c0,0.123,0,0.245,0,0.367c-0.067,0.312,0.143,0.346,0.367,0.367
		c0.01,0.357,0.45,0.285,0.734,0.367c0.123,0,0.245,0,0.367,0c-0.067,0.313,0.144,0.347,0.367,0.367
		c-0.067,0.313,0.144,0.346,0.368,0.367c-0.068,0.313,0.143,0.347,0.367,0.368c-0.068,0.312,0.144,0.346,0.367,0.367
		c0,0.245,0,0.489,0,0.734c-0.312-0.067-0.346,0.143-0.367,0.367c-0.357,0.01-0.285,0.449-0.367,0.734c0,0.245,0,0.49,0,0.734
		c-0.06,0.427,0.081,0.653,0.367,0.734c0,0.245,0,0.49,0,0.734c-0.06,0.427,0.081,0.653,0.367,0.734c0,0.367,0,0.735,0,1.102
		c-0.357,0.01-0.285,0.449-0.367,0.734c-0.357,0.01-0.285,0.45-0.367,0.735c-0.313-0.068-0.347,0.143-0.368,0.367
		c-0.357,0.01-0.285,0.45-0.367,0.734c-0.357,0.01-0.285,0.45-0.367,0.735c0,1.102,0,2.203,0,3.305
		c-0.06,0.427,0.082,0.654,0.367,0.735c0,0.123,0,0.245,0,0.367c-0.06,0.427,0.081,0.653,0.367,0.734c0,0.122,0,0.245,0,0.367
		c-0.059,0.427,0.081,0.653,0.368,0.735c0,0.367,0,0.734,0,1.102c-0.06,0.427,0.081,0.653,0.367,0.734c0,0.734,0,1.469,0,2.203
		c-0.06,0.427,0.081,0.653,0.367,0.735c0,0.612,0,1.224,0,1.836c-0.357,0.01-0.285,0.45-0.367,0.734c0,0.734,0,1.469,0,2.204
		c-0.357,0.01-0.285,0.449-0.367,0.734c0,0.856,0,1.714,0,2.571c-0.357,0.01-0.285,0.449-0.368,0.734c0,1.591,0,3.183,0,4.774
		c-0.357,0.01-0.285,0.449-0.367,0.734c0,0.857,0,1.714,0,2.571c-0.357,0.01-0.285,0.449-0.367,0.734c0,1.591,0,3.183,0,4.774
		c-0.06,0.427,0.082,0.654,0.367,0.734c-0.06,0.427,0.081,0.653,0.367,0.735c-0.059,0.427,0.081,0.653,0.368,0.734
		c0.01,0.357,0.449,0.285,0.734,0.367c-0.067,0.313,0.144,0.347,0.368,0.367c0,0.123,0,0.245,0,0.368
		c-0.067,0.313,0.144,0.346,0.367,0.367c0,0.123,0,0.245,0,0.368c-0.312-0.068-0.346,0.143-0.367,0.367c-0.245,0-0.489,0-0.734,0
		s-0.49,0-0.735,0c-0.122,0-0.245,0-0.367,0c0.067-0.312-0.143-0.346-0.367-0.367c-0.245,0-0.49,0-0.734,0c-0.123,0-0.245,0-0.367,0
		c0.067-0.313-0.143-0.347-0.368-0.368c-0.211-0.75-0.91-1.733-0.734,0c-0.123,0-0.245,0-0.368,0
		c0.067-0.313-0.143-0.346-0.367-0.367c0-0.123,0-0.245,0-0.368c0-0.122,0-0.245,0-0.367c0-0.856,0-1.713,0-2.57
		c0.313,0.067,0.346-0.143,0.367-0.367c0-1.347,0-2.693,0-4.04c0.067-0.312-0.143-0.346-0.367-0.367c0-0.367,0-0.734,0-1.102
		c0.067-0.313-0.143-0.346-0.367-0.367c0-1.347,0-2.693,0-4.04c0.313,0.068,0.347-0.143,0.367-0.367c0-1.102,0-2.204,0-3.306
		c0.067-0.312-0.143-0.346-0.367-0.367c0-0.857,0-1.714,0-2.571c0.068-0.313-0.143-0.347-0.367-0.367c-0.122,0-0.245,0-0.367,0
		c-0.312-0.067-0.347,0.143-0.367,0.367c0,0.489,0,0.979,0,1.469c-0.312-0.067-0.346,0.144-0.367,0.367c0,0.735,0,1.469,0,2.203
		c-0.313-0.067-0.347,0.144-0.368,0.368c0,0.245,0,0.49,0,0.735c-0.312-0.068-0.346,0.143-0.367,0.367
		c-0.069,0.297-0.368,0.366-0.367,0.734c-0.312-0.068-0.347,0.143-0.367,0.367c-0.07,0.297-0.369,0.367-0.368,0.735
		c-0.312-0.068-0.346,0.143-0.367,0.367c-0.069,0.297-0.368,0.366-0.367,0.734c-0.312-0.067-0.347,0.143-0.367,0.367
		c-0.07,0.298-0.369,0.366-0.368,0.734c-0.312-0.067-0.346,0.144-0.367,0.367c0,0.122,0,0.245,0,0.367
		c-0.312-0.067-0.346,0.144-0.368,0.367c0,0.123,0,0.245,0,0.367c-0.312-0.067-0.346,0.144-0.367,0.368c0,0.123,0,0.245,0,0.367
		c-0.312-0.067-0.347,0.143-0.367,0.367c0,0.245,0,0.489,0,0.734c-0.312-0.067-0.347,0.143-0.368,0.367c0,0.245,0,0.49,0,0.735
		c-0.312-0.068-0.346,0.143-0.367,0.367c0,1.714,0,3.427,0,5.141c0,0.123,0,0.246,0,0.367c-0.312-0.067-0.346,0.144-0.367,0.368
		c-0.489,0-0.979,0-1.469,0c0-0.368,0-0.735,0-1.102c0-0.123,0-0.245,0-0.368c0.067-0.312-0.143-0.346-0.367-0.367
		c0.067-0.313-0.143-0.347-0.367-0.367c-0.122,0-0.245,0-0.367,0c0-0.368,0-0.735,0-1.102c0.313,0.067,0.346-0.143,0.367-0.367
		c0-1.224,0-2.448,0-3.672c0.313,0.067,0.347-0.143,0.367-0.367c0-0.367,0-0.734,0-1.102c0.313,0.067,0.347-0.143,0.367-0.368
		c0-0.245,0-0.489,0-0.734c0.313,0.067,0.346-0.143,0.367-0.367c0-0.245,0-0.489,0-0.734c0.313,0.067,0.346-0.144,0.367-0.368
		c0-0.245,0-0.49,0-0.734c0.313,0.067,0.347-0.143,0.367-0.367c0-0.245,0-0.49,0-0.734c0.313,0.067,0.347-0.143,0.367-0.368
		c0-0.245,0-0.489,0-0.734c0.313,0.067,0.347-0.143,0.367-0.367c0-0.123,0-0.246,0-0.367c0.313,0.067,0.346-0.144,0.367-0.368
		c0.07-0.297,0.369-0.366,0.368-0.735c0.313,0.068,0.346-0.143,0.367-0.367c0-0.123,0-0.245,0-0.367
		c0.313,0.067,0.346-0.143,0.367-0.368c0-0.856,0-1.714,0-2.57c0.068-0.312-0.143-0.347-0.367-0.367c0-0.49,0-0.979,0-1.469
		c0.067-0.312-0.144-0.346-0.367-0.367c0-0.49,0-0.98,0-1.469c0.067-0.313-0.143-0.346-0.368-0.367c0-1.469,0-2.938,0-4.407
		c0.313,0.067,0.347-0.143,0.368-0.367c0-0.245,0-0.49,0-0.734c0.313,0.067,0.346-0.143,0.367-0.367c0-0.49,0-0.979,0-1.469
		c0.067-0.313-0.144-0.347-0.367-0.367c0-0.122,0-0.245,0-0.368c0.067-0.312-0.143-0.346-0.368-0.367c0-0.123,0-0.245,0-0.367
		c0.067-0.313-0.143-0.347-0.367-0.367c-0.248-0.854-1.22-0.983-1.469-1.836c0.067-0.313-0.143-0.346-0.367-0.367
		c0-0.122,0-0.245,0-0.367C6.835,81.965,6.624,81.93,6.4,81.91c0-1.347,0-2.693,0-4.04c0.313,0.067,0.347-0.143,0.367-0.367
		c0-0.612,0-1.224,0-1.836c0.313,0.067,0.346-0.143,0.367-0.367c0-1.102,0-2.203,0-3.305c0.483-0.13,0.578-0.647,1.102-0.735
		c0.313,0.068,0.347-0.143,0.367-0.367c0.245,0,0.49,0,0.735,0c0.313,0.067,0.346-0.143,0.367-0.367c0.123,0,0.245,0,0.367,0
		c0.417-0.07,0.205-0.368,0-0.367c0-0.122,0-0.245,0-0.367c0.011-0.357,0.45-0.285,0.735-0.367c0.06-0.427-0.081-0.653-0.367-0.735
		c-0.646-0.088-0.837-0.632-0.734-1.469c0.067-0.313-0.144-0.346-0.367-0.367c-0.425-0.543-0.425-0.925,0-1.469
		c0.313,0.067,0.346-0.143,0.367-0.367c0-0.367,0-0.734,0-1.102c0.067-0.312-0.144-0.346-0.367-0.367
		c0.067-0.313-0.143-0.346-0.368-0.367C9.347,61.966,9.988,61.016,11.541,60.978z"/>
	<path fill-rule="evenodd" clip-rule="evenodd" fill="#009632" d="M387.488,146.927c0.339,0,0.681,0,1.023,0
		c0.027-0.202,0.313-0.143,0.515-0.17c-0.034-0.146,0.063-0.163,0.168-0.171c-0.026-0.145,0.068-0.16,0.173-0.17
		c-0.032-0.147,0.065-0.163,0.171-0.171c0-0.058,0-0.113,0-0.171c0-0.171,0-0.341,0-0.513c0-0.115,0-0.227,0-0.343
		c-0.027-0.197,0.038-0.303,0.171-0.341c0-0.057,0-0.113,0-0.17c-0.026-0.2,0.037-0.305,0.17-0.342
		c-0.031-0.147,0.067-0.161,0.172-0.171c0-0.058,0-0.114,0-0.171c-0.025-0.199,0.037-0.305,0.17-0.341c0-0.115,0-0.229,0-0.341
		c-0.026-0.2,0.04-0.304,0.172-0.343c0-0.057,0-0.115,0-0.17c-0.032-0.146,0.066-0.161,0.173-0.171
		c0.001-0.166,0.205-0.133,0.34-0.171c0.057,0,0.112,0,0.168,0c-0.031-0.145,0.071-0.161,0.173-0.171
		c-0.029-0.145,0.066-0.161,0.171-0.17c-0.03-0.146,0.067-0.161,0.172-0.172c-0.031-0.145,0.064-0.16,0.169-0.17
		c0-0.112,0-0.227,0-0.342c-0.143,0.033-0.161-0.065-0.169-0.17c-0.166-0.004-0.132-0.208-0.172-0.343c0-0.112,0-0.227,0-0.34
		c-0.026-0.199,0.038-0.304,0.172-0.342c0-0.113,0-0.228,0-0.341c-0.029-0.198,0.036-0.304,0.169-0.342c0-0.171,0-0.341,0-0.513
		c-0.164-0.005-0.133-0.209-0.169-0.341c-0.166-0.007-0.132-0.21-0.172-0.343c-0.146,0.032-0.162-0.066-0.171-0.169
		c-0.162-0.006-0.132-0.21-0.173-0.342c-0.163-0.004-0.132-0.21-0.168-0.342c0-0.513,0-1.025,0-1.538
		c-0.029-0.199,0.036-0.304,0.168-0.342c0-0.058,0-0.113,0-0.17c-0.027-0.198,0.041-0.305,0.173-0.342c0-0.058,0-0.113,0-0.17
		c-0.027-0.199,0.038-0.305,0.171-0.343c0-0.17,0-0.341,0-0.513c-0.026-0.197,0.038-0.303,0.172-0.342c0-0.342,0-0.684,0-1.025
		c-0.029-0.199,0.036-0.304,0.169-0.342c0-0.284,0-0.569,0-0.854c-0.164-0.004-0.133-0.208-0.169-0.34c0-0.342,0-0.685,0-1.024
		c-0.166-0.006-0.132-0.21-0.172-0.342c0-0.398,0-0.799,0-1.198c-0.166-0.004-0.133-0.21-0.171-0.341c0-0.741,0-1.48,0-2.22
		c-0.162-0.007-0.132-0.209-0.173-0.342c0-0.4,0-0.799,0-1.197c-0.163-0.004-0.132-0.209-0.168-0.342c0-0.74,0-1.482,0-2.222
		c-0.029-0.199,0.036-0.303,0.168-0.341c-0.027-0.199,0.041-0.304,0.173-0.341c-0.027-0.198,0.038-0.304,0.171-0.342
		c0.006-0.167,0.208-0.133,0.341-0.17c-0.03-0.146,0.067-0.162,0.174-0.172c0-0.056,0-0.114,0-0.17
		c-0.032-0.145,0.064-0.162,0.168-0.171c0-0.057,0-0.115,0-0.171c-0.144,0.03-0.16-0.066-0.168-0.171c-0.113,0-0.229,0-0.343,0
		c-0.114,0-0.229,0-0.343,0c-0.056,0-0.11,0-0.173,0c0.034,0.145-0.063,0.161-0.168,0.171c-0.114,0-0.229,0-0.34,0
		c-0.059,0-0.114,0-0.173,0c0.03,0.145-0.066,0.161-0.172,0.171c-0.098,0.348-0.423,0.806-0.342,0c-0.054,0-0.113,0-0.17,0
		c0.031,0.146-0.066,0.16-0.171,0.171c0,0.056,0,0.114,0,0.17c0,0.056,0,0.114,0,0.172c0,0.397,0,0.796,0,1.195
		c0.147-0.031,0.159,0.067,0.171,0.172c0,0.625,0,1.252,0,1.878c0.031,0.146-0.066,0.162-0.171,0.171c0,0.17,0,0.342,0,0.513
		c0.03,0.146-0.066,0.16-0.171,0.171c0,0.626,0,1.254,0,1.88c0.146-0.032,0.16,0.065,0.171,0.169c0,0.513,0,1.025,0,1.539
		c0.03,0.146-0.066,0.161-0.171,0.17c0,0.398,0,0.799,0,1.198c0.032,0.145-0.067,0.16-0.173,0.17c-0.056,0-0.11,0-0.168,0
		c-0.146,0.031-0.159-0.067-0.171-0.17c0-0.228,0-0.458,0-0.684c-0.146,0.03-0.161-0.068-0.172-0.171c0-0.342,0-0.684,0-1.026
		c-0.146,0.032-0.16-0.066-0.172-0.171c0-0.113,0-0.228,0-0.341c-0.143,0.032-0.16-0.067-0.169-0.171
		c-0.031-0.137-0.174-0.171-0.174-0.342c-0.142,0.032-0.158-0.065-0.17-0.169c-0.03-0.139-0.172-0.172-0.172-0.341
		c-0.144,0.03-0.16-0.067-0.168-0.172c-0.032-0.138-0.171-0.169-0.171-0.342c-0.146,0.032-0.162-0.065-0.174-0.169
		c-0.029-0.139-0.17-0.171-0.17-0.342c-0.142,0.03-0.162-0.068-0.17-0.171c0-0.057,0-0.114,0-0.171
		c-0.147,0.03-0.16-0.066-0.172-0.171c0-0.057,0-0.115,0-0.171c-0.144,0.032-0.161-0.066-0.168-0.171c0-0.057,0-0.115,0-0.171
		c-0.147,0.031-0.163-0.066-0.174-0.17c0-0.115,0-0.228,0-0.342c-0.145,0.031-0.161-0.066-0.17-0.171c0-0.113,0-0.227,0-0.342
		c-0.146,0.032-0.16-0.066-0.17-0.17c0-0.797,0-1.595,0-2.391c0-0.058,0-0.116,0-0.172c-0.145,0.031-0.162-0.065-0.171-0.17
		c-0.23,0-0.456,0-0.685,0c0,0.17,0,0.342,0,0.513c0,0.056,0,0.114,0,0.17c0.03,0.146-0.065,0.162-0.17,0.171
		c0.03,0.145-0.067,0.16-0.172,0.17c-0.056,0-0.113,0-0.169,0c0,0.171,0,0.342,0,0.513c0.143-0.031,0.159,0.067,0.169,0.172
		c0,0.568,0,1.139,0,1.708c0.146-0.03,0.159,0.066,0.172,0.171c0,0.171,0,0.342,0,0.513c0.145-0.032,0.162,0.066,0.17,0.171
		c0,0.114,0,0.227,0,0.342c0.146-0.032,0.161,0.066,0.174,0.171c0,0.113,0,0.226,0,0.342c0.143-0.033,0.159,0.066,0.169,0.171
		c0,0.112,0,0.227,0,0.342c0.146-0.033,0.16,0.066,0.172,0.169c0,0.113,0,0.229,0,0.342c0.143-0.033,0.161,0.067,0.17,0.172
		c0,0.113,0,0.227,0,0.34c0.146-0.031,0.161,0.066,0.171,0.171c0,0.057,0,0.114,0,0.171c0.145-0.031,0.162,0.066,0.17,0.17
		c0.033,0.14,0.174,0.171,0.17,0.342c0.146-0.031,0.162,0.067,0.174,0.171c0,0.057,0,0.115,0,0.171
		c0.142-0.03,0.159,0.067,0.168,0.171c0,0.399,0,0.798,0,1.197c0.034,0.145-0.064,0.161-0.168,0.171c0,0.226,0,0.455,0,0.682
		c0.029,0.146-0.07,0.162-0.174,0.171c0,0.228,0,0.455,0,0.684c0.032,0.144-0.065,0.161-0.17,0.17c0,0.685,0,1.368,0,2.052
		c0.145-0.031,0.162,0.066,0.17,0.17c0,0.115,0,0.227,0,0.342c0.146-0.032,0.162,0.067,0.174,0.172c0,0.227,0,0.454,0,0.684
		c0.029,0.145-0.07,0.161-0.174,0.17c0,0.057,0,0.115,0,0.172c0.032,0.144-0.065,0.161-0.17,0.17c0,0.057,0,0.113,0,0.17
		c0.031,0.145-0.066,0.162-0.17,0.171c-0.117,0.398-0.567,0.458-0.682,0.854c0.028,0.146-0.068,0.161-0.174,0.171
		c0,0.057,0,0.114,0,0.17c0.03,0.145-0.065,0.161-0.17,0.171c0,0.627,0,1.252,0,1.88c0.145-0.031,0.162,0.066,0.17,0.171
		c0,0.284,0,0.569,0,0.854c0.146-0.032,0.161,0.066,0.174,0.17c0,0.511,0,1.025,0,1.538c0.222,0.063,0.267,0.302,0.511,0.343
		c0.146-0.032,0.161,0.066,0.171,0.17c0.114,0,0.228,0,0.34,0c0.146-0.03,0.162,0.067,0.174,0.171c0.055,0,0.112,0,0.168,0
		c0.196,0.032,0.098,0.171,0,0.171c0,0.056,0,0.115,0,0.171c0.008,0.166,0.21,0.132,0.342,0.17c0.026,0.199-0.036,0.305-0.17,0.343
		c-0.3,0.04-0.389,0.292-0.34,0.682c0.029,0.146-0.07,0.162-0.174,0.171c-0.195,0.252-0.195,0.432,0,0.683
		c0.146-0.032,0.162,0.067,0.174,0.171c0,0.169,0,0.341,0,0.512c0.029,0.146-0.07,0.161-0.174,0.172
		c0.032,0.144-0.065,0.161-0.17,0.17C386.466,146.469,386.766,146.909,387.488,146.927z"/>
	<line fill="none" stroke="#FF0000" stroke-miterlimit="10" x1="13.744" y1="60.978" x2="270.051" y2="60.978"/>
	<line fill="none" stroke="#FF0000" stroke-miterlimit="10" x1="270.051" y1="60.978" x2="439.834" y2="185.833"/>
	<g>
		<g>
			<line fill="none" stroke="#0000FF" stroke-width="2" stroke-miterlimit="10" x1="14.561" y1="34" x2="269.051" y2="34"/>
			<g>
				<rect x="13.561" y="27.5" fill="#0000FF" width="2" height="13"/>
			</g>
			<g>
				<rect x="268.051" y="27.5" fill="#0000FF" width="2" height="13"/>
			</g>
		</g>
	</g>
	<g>
		<path fill="#0000FF" d="M137.31,26.344l1.608,0.149c-0.012,0.363,0.032,0.636,0.132,0.817s0.258,0.322,0.475,0.422
			c0.287,0.129,0.659,0.193,1.116,0.193c0.961,0,1.652-0.249,2.074-0.747c0.275-0.334,0.53-1.061,0.765-2.18l0.158-0.756
			c-0.826,0.838-1.705,1.257-2.637,1.257c-0.943,0-1.733-0.347-2.369-1.042s-0.954-1.677-0.954-2.949
			c0-1.049,0.25-2.013,0.751-2.892s1.097-1.542,1.789-1.991s1.403-0.672,2.136-0.672c1.225,0,2.168,0.58,2.83,1.74l0.316-1.529
			h1.459l-1.881,9.009c-0.205,0.99-0.475,1.762-0.809,2.316s-0.798,0.983-1.393,1.288s-1.282,0.457-2.061,0.457
			c-0.75,0-1.396-0.097-1.938-0.29s-0.946-0.476-1.213-0.848s-0.4-0.798-0.4-1.279C137.266,26.673,137.281,26.514,137.31,26.344z
			 M139.297,21.37c0,0.639,0.062,1.119,0.185,1.441c0.176,0.451,0.426,0.795,0.751,1.033s0.687,0.356,1.085,0.356
			c0.521,0,1.04-0.183,1.556-0.549s0.933-0.933,1.252-1.701s0.479-1.5,0.479-2.197c0-0.768-0.212-1.378-0.637-1.833
			s-0.951-0.681-1.578-0.681c-0.387,0-0.762,0.104-1.125,0.312s-0.702,0.524-1.015,0.949s-0.551,0.933-0.712,1.525
			S139.297,21.065,139.297,21.37z"/>
	</g>
	<g>
		<g>
			<line fill="none" stroke="#0000FF" stroke-width="2" stroke-miterlimit="10" x1="271.051" y1="212" x2="387.428" y2="212"/>
			<g>
				<rect x="270.051" y="205.5" fill="#0000FF" width="2" height="13"/>
			</g>
			<g>
				<rect x="386.428" y="205.5" fill="#0000FF" width="2" height="13"/>
			</g>
		</g>
	</g>
	<g>
		<path fill="#0000FF" d="M327.592,232l2.689-12.885h1.592l-0.959,4.605c0.504-0.463,0.961-0.789,1.371-0.979
			s0.838-0.286,1.283-0.286c0.873,0,1.602,0.326,2.185,0.977s0.874,1.596,0.874,2.838c0,0.826-0.117,1.582-0.352,2.268
			s-0.523,1.262-0.869,1.728s-0.703,0.838-1.072,1.116s-0.748,0.486-1.135,0.624s-0.758,0.206-1.115,0.206
			c-0.615,0-1.158-0.162-1.627-0.487s-0.834-0.821-1.098-1.489L328.99,232H327.592z M329.947,228.168l-0.008,0.299
			c0,0.797,0.189,1.404,0.57,1.82s0.855,0.623,1.424,0.623c0.557,0,1.068-0.194,1.534-0.584s0.849-0.998,1.147-1.824
			s0.447-1.588,0.447-2.285c0-0.785-0.188-1.395-0.566-1.828s-0.846-0.65-1.402-0.65c-0.574,0-1.102,0.222-1.582,0.664
			s-0.881,1.123-1.203,2.043C330.068,227.131,329.947,227.705,329.947,228.168z"/>
	</g>
</g>
</svg>
