<svg xmlns="http://www.w3.org/2000/svg" xmlns:cc="http://web.resource.org/cc/" xmlns:svg="http://www.w3.org/2000/svg" id="svg2" width="754" height="376" version="1.0"><metadata id="metadata67"/><text id="text_Glasroehre" x="157.661" y="41.723" xml:space="preserve"><tspan id="tspan4650" x="157.661" y="41.723"><tspan style="font-size:20px;font-family:Times New Roman" id="tspan4652" x="157.661" y="41.723">Glasröhre (evakuiert)</tspan></tspan></text><text id="text_Elektronen" x="387.354" y="43.223" xml:space="preserve"><tspan id="tspan4167" x="387.354" y="43.223"><tspan style="font-size:20px;font-family:Times New Roman" id="tspan4169" x="387.354" y="43.223">Elektronen</tspan></tspan></text><text id="text_Glühkathode" x="208.515" y="86" xml:space="preserve"><tspan id="tspan4179" x="208.515" y="86"><tspan style="font-size:20px;font-family:Times New Roman" id="tspan4181" x="208.515" y="86">Glühkathode</tspan></tspan></text><text id="text_Anode" x="444.844" y="85.727" xml:space="preserve"><tspan id="tspan4173" x="444.844" y="85.727"><tspan style="font-size:20px;font-family:Times New Roman" id="tspan4175" x="444.844" y="85.727">Anode</tspan></tspan></text><text style="font-size:20px;font-style:normal;font-variant:normal;font-weight:400;font-stretch:normal;text-align:center;line-height:89.99999762%;writing-mode:lr-tb;text-anchor:middle;font-family:Times New Roman" id="text_Heizspannung" x="72.344" y="118.02" xml:space="preserve"><tspan style="font-weight:400" id="tspan4685" x="72.344" y="118.02">Heiz-</tspan><tspan style="font-weight:400" id="tspan4687" x="74.844" y="136.02">spannung </tspan><tspan style="font-weight:400" id="tspan4689" x="72.344" y="154.02" dy="0 7.002">U<tspan style="font-size:14px;font-style:normal;font-variant:normal;font-weight:400;font-stretch:normal;text-align:center;line-height:89.99999762%;writing-mode:lr-tb;text-anchor:middle;font-family:Times New Roman" id="tspan4691" dx="2.086" dy="1.98">H</tspan></tspan></text><text style="font-size:20px;font-style:normal;font-variant:normal;font-weight:400;font-stretch:normal;text-align:center;line-height:89.99999762%;writing-mode:lr-tb;text-anchor:middle;font-family:Times New Roman" id="text_Anodenstromst." x="675" y="181" xml:space="preserve"><tspan id="tspan4191" x="675" y="181">Anoden-</tspan><tspan id="tspan4193" x="677.5" y="199">stromstärke </tspan><tspan id="tspan4195" x="675" y="217" dy="0">I<tspan style="font-size:14px;font-style:normal;font-variant:normal;font-weight:400;font-stretch:normal;text-align:center;line-height:89.99999762%;writing-mode:lr-tb;text-anchor:middle;font-family:Times New Roman" id="tspan4197" dy="1.768">A</tspan></tspan></text><text style="font-size:20px;font-style:normal;font-variant:normal;font-weight:400;font-stretch:normal;text-align:center;line-height:89.99999762%;writing-mode:lr-tb;text-anchor:middle;font-family:Times New Roman" id="text_Anodensp." x="355.398" y="249.887" xml:space="preserve"><tspan id="tspan4205" x="355.398" y="249.887" dy="0 0 0 0 0 0 0 0 0 0 0 0 0 0 0 0">Anodenspannung U<tspan style="font-size:14px;font-style:normal;font-variant:normal;font-weight:400;font-stretch:normal;text-align:center;line-height:89.99999762%;writing-mode:lr-tb;text-anchor:middle;font-family:Times New Roman" id="tspan4207" dy="3.536">A</tspan></tspan></text><text id="text_+-" x="338.566" y="290" xml:space="preserve"><tspan style="font-size:20px;font-family:Times New Roman" id="tspan2225" x="338.566" y="290"><tspan style="font-size:20px;font-family:Times New Roman" id="tspan2227" x="338.566" y="290"><tspan style="font-size:28px" id="tspan2233"><tspan style="font-size:24px" id="tspan2235">− +</tspan></tspan></tspan></tspan></text><rect style="fill:none;fill-opacity:1;fill-rule:nonzero;stroke:#000;stroke-width:4;stroke-linecap:round;stroke-linejoin:round;stroke-miterlimit:4;stroke-dasharray:none;stroke-opacity:1" id="rect_Gehaeuse" width="377.488" height="151.488" x="168.97" y="55.399" rx="75.988" ry="75.436"/><path style="opacity:1;fill:none;fill-opacity:1;fill-rule:evenodd;stroke:#ff0101;stroke-width:1.20000005;stroke-linecap:butt;stroke-linejoin:miter;stroke-miterlimit:4;stroke-dasharray:none;stroke-opacity:1" id="path_Heizspirale" d="M 131,113 L 131,93 L 245,93 L 245,117 C 240,122 249,122 249,119 C 249,116 240,118 240,122 C 240,127 249,129 249,125 C 249,121 240,124 240,129 C 240,134 249,136 249,132 C 249,128 240,131 240,136 C 240,141 249,143 249,139 C 249,135 240,137 240,143 C 240,149 249,147.5 249,146 C 249,144.5 245,145 245,146 L 245,169 L 131,169 L 131,150"/><path style="fill:none;fill-opacity:1;fill-rule:nonzero;stroke:red;stroke-width:1.21354818;stroke-linecap:butt;stroke-linejoin:round;stroke-miterlimit:4;stroke-dasharray:none;stroke-opacity:1" id="path_Kreis1_Heizspirale" d="M 136.39322,118 C 136.39322,120.9786 133.97859,123.39323 131,123.39323 C 128.0214,123.39323 125.60677,120.9786 125.60677,118 C 125.60677,115.0214 128.0214,112.60677 131,112.60677 C 133.97859,112.60677 136.39322,115.0214 136.39322,118 z"/><path style="fill:none;fill-opacity:1;fill-rule:nonzero;stroke:red;stroke-width:1.21354818;stroke-linecap:butt;stroke-linejoin:round;stroke-miterlimit:4;stroke-dasharray:none;stroke-opacity:1" id="path_Kreis2_Heizspirale" d="M 136.39322,144 C 136.39322,146.9786 133.97859,149.39323 131,149.39323 C 128.0214,149.39323 125.60677,146.9786 125.60677,144 C 125.60677,141.0214 128.0214,138.60677 131,138.60677 C 133.97859,138.60677 136.39322,141.0214 136.39322,144 z"/><rect style="fill:#00f;fill-opacity:1;fill-rule:nonzero;stroke:none;stroke-width:1.56098151;stroke-linecap:butt;stroke-linejoin:round;stroke-miterlimit:4;stroke-dasharray:none;stroke-opacity:1" id="rect_Kathode" width="8" height="76" x="259" y="93"/><path style="fill:none;fill-rule:evenodd;stroke:#00f;stroke-width:1px;stroke-linecap:butt;stroke-linejoin:miter;marker-start:none;marker-mid:none;stroke-opacity:1" id="path_Kabel1" d="M 263,169 L 263,188 L 131,188 L 131,263 L 339,263"/><path style="fill:none;fill-opacity:1;fill-rule:nonzero;stroke:#00f;stroke-width:1.21354818;stroke-linecap:butt;stroke-linejoin:round;stroke-miterlimit:4;stroke-dasharray:none;stroke-opacity:1" id="path_Kreis1_Kabel" d="M 344.99999,257.60673 C 347.97859,257.60673 350.39322,260.02137 350.39322,262.99995 C 350.39322,265.97855 347.97859,268.39319 344.99999,268.39319 C 342.02139,268.39319 339.60676,265.97855 339.60676,262.99995 C 339.60676,260.02137 342.02139,257.60673 344.99999,257.60673 z"/><path style="fill:none;fill-opacity:1;fill-rule:nonzero;stroke:#00f;stroke-width:1.21354818;stroke-linecap:butt;stroke-linejoin:round;stroke-miterlimit:4;stroke-dasharray:none;stroke-opacity:1" id="path_Kreis2_Kabel" d="M 371,257.60673 C 373.9786,257.60673 376.39323,260.02137 376.39323,262.99995 C 376.39323,265.97855 373.9786,268.39319 371,268.39319 C 368.0214,268.39319 365.60677,265.97855 365.60677,262.99995 C 365.60677,260.02137 368.0214,257.60673 371,257.60673 z"/><path style="fill:none;fill-rule:evenodd;stroke:#00f;stroke-width:1px;stroke-linecap:butt;stroke-linejoin:miter;stroke-opacity:1" id="path_Kabel2" d="M 377,263 L 585,263 L 585,131 L 475,131"/><path style="fill:none;fill-rule:evenodd;stroke:#00f;stroke-width:1px;stroke-linecap:butt;stroke-linejoin:miter;stroke-opacity:1" id="path_Anodenspannung" d="M 301,263 L 301,329 L 414,329 L 414,263"/><path style="fill:#00f;fill-opacity:1;fill-rule:nonzero;stroke:none;stroke-width:1.29999995;stroke-linecap:butt;stroke-linejoin:round;stroke-miterlimit:4;stroke-dasharray:none;stroke-opacity:1" id="path_Verbindung1" d="M 301,259 C 303.20914,259 305,260.79086 305,263 C 305,265.20914 303.20914,267 301,267 C 298.79086,267 296.99999,265.20914 296.99999,263 C 296.99999,260.79086 298.79086,259 301,259 z"/><path style="fill:#00f;fill-opacity:1;fill-rule:nonzero;stroke:none;stroke-width:1.29999995;stroke-linecap:butt;stroke-linejoin:round;stroke-miterlimit:4;stroke-dasharray:none;stroke-opacity:1" id="path_Verbindung2" d="M 414.00001,259 C 416.20915,259 418.00001,260.79086 418.00001,263 C 418.00001,265.20914 416.20915,267 414.00001,267 C 411.79087,267 410,265.20914 410,263 C 410,260.79086 411.79087,259 414.00001,259 z"/><g id="Gruppe_Voltometer" transform="translate(22.714285,-427.21933)"><path style="fill:#fff;fill-opacity:1;fill-rule:nonzero;stroke:#00f;stroke-width:.24885854;stroke-linecap:butt;stroke-linejoin:round;stroke-miterlimit:4;stroke-dasharray:none;stroke-opacity:1" id="path_Kreis1" d="M 137.9866,118.29962 C 137.9866,121.49041 135.39995,124.07706 132.20917,124.07706 C 129.01838,124.07706 126.43173,121.49041 126.43173,118.29962 C 126.43173,115.10883 129.01838,112.52218 132.20917,112.52218 C 135.39995,112.52218 137.9866,115.10883 137.9866,118.29962 z" transform="matrix(0,-4.8289843,4.8289844,0,-236.48131,1395.5029)"/><path style="fill:none;fill-rule:evenodd;stroke:#00f;stroke-width:1px;stroke-linecap:butt;stroke-linejoin:miter;marker-end:none;stroke-opacity:1" id="path_Pfeil1" d="M 320.28571,772.21933 L 349.28571,742.21933"/><path style="opacity:1;fill:#00f" id="path_Pfeilspitze1" d="M 338.28571,746.77393 L 350.28571,741.2197 L 345.04125,753.21933 C 345.04125,753.21933 344.31373,750.55067 342.62484,748.93932 C 340.93595,747.32796 338.28571,746.77393 338.28571,746.77393 z"/></g><g id="Gruppe_Ampermeter" transform="translate(22.714285,-427.21933)"><path style="fill:#fff;fill-opacity:1;fill-rule:nonzero;stroke:#00f;stroke-width:.24885854;stroke-linecap:butt;stroke-linejoin:round;stroke-miterlimit:4;stroke-dasharray:none;stroke-opacity:1" id="path9242" d="M 137.9866,118.29962 C 137.9866,121.49041 135.39995,124.07706 132.20917,124.07706 C 129.01838,124.07706 126.43173,121.49041 126.43173,118.29962 C 126.43173,115.10883 129.01838,112.52218 132.20917,112.52218 C 135.39995,112.52218 137.9866,115.10883 137.9866,118.29962 z" transform="matrix(0,-4.8289843,4.8289844,0,-9.4813117,1263.1553)"/><path style="fill:none;fill-rule:evenodd;stroke:#00f;stroke-width:1px;stroke-linecap:butt;stroke-linejoin:miter;marker-end:none;stroke-opacity:1" id="path_Pfeil2" d="M 547.28571,639.87175 L 576.28571,609.87175"/><path style="fill:#00f" id="path_Pfeilspitze" d="M 565.28571,614.42635 L 577.28571,608.87212 L 572.04125,620.87175 C 572.04125,620.87175 571.31373,618.20309 569.62484,616.59174 C 567.93595,614.98038 565.28571,614.42635 565.28571,614.42635 z"/></g><rect style="fill:#00f;fill-opacity:1;fill-rule:nonzero;stroke:none;stroke-width:1.56098151;stroke-linecap:butt;stroke-linejoin:round;stroke-miterlimit:4;stroke-dasharray:none;stroke-opacity:1" id="rect_Anode" width="8" height="76" x="467" y="93"/><path style="fill:none;fill-rule:evenodd;stroke:#000;stroke-width:1px;stroke-linecap:butt;stroke-linejoin:miter;stroke-opacity:1;display:inline" id="path_Bezeichnung_Elektron1" d="M 425.5015,47.548901 L 328.09755,104.64777"/><path style="fill:none;fill-rule:evenodd;stroke:#000;stroke-width:1px;stroke-linecap:butt;stroke-linejoin:miter;stroke-opacity:1;display:inline" id="path_Bezeichnung_Elektron2" d="M 433.00817,49.00421 L 366.85433,140.5"/><path style="fill:none;fill-rule:evenodd;stroke:#000;stroke-width:1px;stroke-linecap:butt;stroke-linejoin:miter;stroke-opacity:1;display:inline" id="path_Bezeichnung_Elektron3" d="M 440,48.82062 L 418.16382,121"/><g id="Gruppe_Elektron1"><g id="g4188"><path style="fill:#0f0;fill-opacity:1;fill-rule:nonzero;stroke:#000;stroke-width:.92761379;stroke-linecap:round;stroke-linejoin:round;stroke-miterlimit:4;stroke-dasharray:none;stroke-opacity:1" id="path_Kreis_Elektron1" d="M 326.5362,112.5 C 326.53877,115.0155 325.19824,117.34103 323.02018,118.59953 C 320.84212,119.85802 318.15789,119.85802 315.97983,118.59953 C 313.80176,117.34103 312.46124,115.0155 312.46381,112.5 C 312.46124,109.9845 313.80176,107.65898 315.97983,106.40048 C 318.15789,105.14199 320.84212,105.14199 323.02018,106.40048 C 325.19824,107.65898 326.53877,109.9845 326.5362,112.5 z"/><path style="fill:none;fill-rule:evenodd;stroke:#000;stroke-width:1;stroke-linecap:butt;stroke-linejoin:miter;marker-start:none;marker-mid:none;marker-end:none;stroke-miterlimit:4;stroke-dasharray:none;stroke-opacity:1" id="path_Pfeil_Elektron1" d="M 326.1,112 L 344.1,112"/><path style="opacity:1;fill:#000;fill-opacity:1" id="path2219" d="M 332.95,107.41552 L 345.36272,111.97337 L 333.16932,116.75 C 333.16932,116.75 334.5419,114.34854 334.48706,112.01491 C 334.43226,109.68129 332.95,107.41552 332.95,107.41552 z"/></g></g><g id="Gruppe_Elektron2" transform="translate(38.000001,37.99279)"><path style="fill:#0f0;fill-opacity:1;fill-rule:nonzero;stroke:#000;stroke-width:.92761379;stroke-linecap:round;stroke-linejoin:round;stroke-miterlimit:4;stroke-dasharray:none;stroke-opacity:1" id="path4203" d="M 326.5362,112.5 C 326.53877,115.0155 325.19824,117.34103 323.02018,118.59953 C 320.84212,119.85802 318.15789,119.85802 315.97983,118.59953 C 313.80176,117.34103 312.46124,115.0155 312.46381,112.5 C 312.46124,109.9845 313.80176,107.65898 315.97983,106.40048 C 318.15789,105.14199 320.84212,105.14199 323.02018,106.40048 C 325.19824,107.65898 326.53877,109.9845 326.5362,112.5 z"/><path style="fill:none;fill-rule:evenodd;stroke:#000;stroke-width:1;stroke-linecap:butt;stroke-linejoin:miter;marker-start:none;marker-mid:none;marker-end:none;stroke-miterlimit:4;stroke-dasharray:none;stroke-opacity:1" id="path4205" d="M 326.1,112 L 344.1,112"/><path style="opacity:1;fill:#000;fill-opacity:1" id="path4207" d="M 332.95,107.41552 L 345.36272,111.97337 L 333.16932,116.75 C 333.16932,116.75 334.5419,114.34854 334.48706,112.01491 C 334.43226,109.68129 332.95,107.41552 332.95,107.41552 z"/></g><g id="Gruppe_Elektron3" transform="translate(95.03728,18.79952)"><path style="fill:#0f0;fill-opacity:1;fill-rule:nonzero;stroke:#000;stroke-width:.92761379;stroke-linecap:round;stroke-linejoin:round;stroke-miterlimit:4;stroke-dasharray:none;stroke-opacity:1" id="path4211" d="M 326.5362,112.5 C 326.53877,115.0155 325.19824,117.34103 323.02018,118.59953 C 320.84212,119.85802 318.15789,119.85802 315.97983,118.59953 C 313.80176,117.34103 312.46124,115.0155 312.46381,112.5 C 312.46124,109.9845 313.80176,107.65898 315.97983,106.40048 C 318.15789,105.14199 320.84212,105.14199 323.02018,106.40048 C 325.19824,107.65898 326.53877,109.9845 326.5362,112.5 z"/><path style="fill:none;fill-rule:evenodd;stroke:#000;stroke-width:1;stroke-linecap:butt;stroke-linejoin:miter;marker-start:none;marker-mid:none;marker-end:none;stroke-miterlimit:4;stroke-dasharray:none;stroke-opacity:1" id="path4213" d="M 326.1,112 L 344.1,112"/><path style="opacity:1;fill:#000;fill-opacity:1" id="path4215" d="M 332.95,107.41552 L 345.36272,111.97337 L 333.16932,116.75 C 333.16932,116.75 334.5419,114.34854 334.48706,112.01491 C 334.43226,109.68129 332.95,107.41552 332.95,107.41552 z"/></g></svg>